Coordinates
version=1
nRows=13
nColumns=36
inDegrees=yes

Units are S.I. units (second, meters, Newtons, ...)
If the header above contains a line with 'inDegrees', this indicates whether rotational values are in degrees (yes) or radians (no).

endheader
time	pelvis_tilt	pelvis_list	pelvis_rotation	pelvis_tx	pelvis_ty	pelvis_tz	hip_flexion_r	hip_adduction_r	hip_rotation_r	knee_angle_r	knee_angle_r_beta	ankle_angle_r	subtalar_angle_r	mtp_angle_r	hip_flexion_l	hip_adduction_l	hip_rotation_l	knee_angle_l	knee_angle_l_beta	ankle_angle_l	subtalar_angle_l	mtp_angle_l	lumbar_extension	lumbar_bending	lumbar_rotation	arm_flex_r	arm_add_r	arm_rot_r	elbow_flex_r	pro_sup_r	arm_flex_l	arm_add_l	arm_rot_l	elbow_flex_l	pro_sup_l
      6.70000000	    -19.14370332	     -3.43377053	      5.33964091	      1.27099995	      0.79871567	     -0.09106459	     61.39507029	    -12.54601821	     -4.85423454	     58.30143354	      1.01755197	     15.35445300	     -5.76748918	     -7.49999987	     58.10394152	    -18.02455160	     -7.20389387	     60.00990478	      1.04737042	     25.65134911	     -1.64488818	     -7.49999987	    -16.89407657	      0.98978895	      6.11675416	     81.20759279	     -0.59397532	     67.45869274	    131.55749612	     94.30941619	     90.12128164	      5.06321080	     67.57348896	    119.65243196	    101.31485192
      6.71666670	    -17.88523152	     -2.75501881	      5.02158310	      1.27153324	      0.81115789	     -0.09595160	     58.75459672	    -12.42075793	     -4.30691890	     56.41871259	      0.98469229	     15.25497663	     -5.34958246	     -7.49999987	     54.61622200	    -17.53251585	     -8.04783916	     57.61340132	      1.00554355	     25.40637413	     -1.55535629	     -7.49999987	    -16.41390658	      0.66736205	      5.48964857	     80.06167016	     -0.23587854	     64.44596316	    130.62015618	     94.26493769	     89.25529959	      5.09118508	     65.58808134	    120.40187396	    100.99197051
      6.73333330	    -16.54750570	     -2.14223169	      4.67255902	      1.27758483	      0.82534692	     -0.09337855	     55.85364793	    -12.33195216	     -4.07150068	     54.21012409	      0.94614515	     14.94914133	     -4.92396640	     -7.49999987	     50.95532416	    -17.04571069	     -8.85511902	     54.95585690	      0.95916065	     24.89743849	     -1.53343204	     -7.49999987	    -16.17753212	      0.40593856	      4.98214345	     78.46395181	      0.32241766	     62.38487727	    129.41310238	     93.20053655	     87.73339480	      4.11762840	     65.04171526	    121.05782948	     99.32129067
      6.75000000	    -15.40307569	     -1.61053218	      4.38869386	      1.27907520	      0.83731706	     -0.09285480	     53.02983975	    -12.27230671	     -3.91839599	     51.82876671	      0.90458263	     14.62355020	     -4.47774223	     -7.49999987	     47.53490999	    -16.47556118	     -9.55157309	     52.15528821	      0.91028150	     24.20884512	     -1.54016788	     -7.49999987	    -15.49114431	      0.12895329	      4.43113292	     77.04279978	      2.23196269	     62.71555225	    128.52791296	     93.59846555	     86.11284811	      3.06796718	     64.21429110	    121.26226536	     99.21719548
      6.76666670	    -14.29103902	     -1.16533390	      4.10173256	      1.28464446	      0.84326307	     -0.09575941	     50.36172863	    -12.26383446	     -3.80527540	     49.67930085	      0.86706737	     14.38646345	     -3.94449238	     -7.49999987	     44.26373277	    -15.94367543	    -10.19294566	     49.56263862	      0.86503123	     23.68488147	     -1.48985408	     -7.49999987	    -14.56139126	      0.07480128	      4.13640701	     76.01607706	      3.54263134	     63.65018543	    129.42181043	     92.29897852	     84.12369596	      2.11814159	     63.85714581	    122.80814332	     97.20609151
      6.78333330	    -12.97010129	     -0.72804463	      3.72964620	      1.30178365	      0.85534690	     -0.09329558	     46.77520644	    -12.16169161	     -3.87838257	     46.73437555	      0.81566873	     14.22553686	     -3.34728600	     -7.49999987	     39.97395028	    -15.29682963	    -10.92342378	     45.96009061	      0.80215491	     22.95491773	     -1.36017278	     -7.49999987	    -13.31507765	     -0.12396363	      4.71556011	     73.61840247	      4.53522670	     63.57613697	    128.38876507	     92.82641619	     81.05915410	      1.95439031	     63.34322361	    123.43272379	     97.70970740
      6.80000000	    -11.68730755	     -0.42662555	      3.34633073	      1.31204621	      0.86492730	     -0.09915655	     43.07300938	    -12.08226190	     -4.10792494	     43.66569591	      0.76211016	     14.12342912	     -2.66497842	     -7.49999987	     35.67821017	    -14.75170760	    -11.84137506	     42.31718511	      0.73857421	     22.39533296	     -0.64233832	     -7.49999987	    -12.21614093	     -0.01786193	      4.59517839	     71.67227163	      5.48228638	     64.06555980	    129.36774656	     97.09597068	     78.02195923	      1.59886287	     63.06412793	    124.61845593	    102.97043933
      6.81666670	    -10.18941942	     -0.23168417	      2.93414602	      1.32327454	      0.87890422	     -0.09958207	     38.71117307	    -11.88973962	     -4.51292547	     40.05040323	      0.69901140	     13.99029056	     -1.92927007	     -7.49999987	     30.75131391	    -14.17183201	    -12.80772115	     38.05468039	      0.66417947	     21.73905108	      0.36142521	     -7.49999987	    -11.38042620	      0.09876302	      5.15351188	     68.69466217	      4.83588887	     63.08647836	    128.84705411	     97.22462453	     75.02820491	      2.16971913	     63.73389809	    125.00661998	    103.16542292
      6.83333330	     -8.83152118	     -0.24568014	      2.66589187	      1.33343657	      0.88804246	     -0.10090138	     34.48307985	    -11.56995055	     -5.04487667	     36.51862930	      0.63737032	     13.68656443	     -1.26702372	     -7.49999987	     26.24339842	    -13.75198627	    -13.68636097	     34.02322123	      0.59381723	     21.27847594	      1.69764387	     -7.49999987	    -10.33986423	      0.44424241	      5.26242947	     66.10283387	      4.61053838	     63.01062616	    128.86042106	     96.00364941	     72.41576989	      2.65093428	     63.76449927	    124.84787893	    101.71028893
      6.85000000	     -7.87237318	     -0.42464172	      2.51066121	      1.33875741	      0.89470717	     -0.10432807	     31.15060409	    -11.22174699	     -5.53566550	     33.64868275	      0.58728030	     13.20325290	     -0.83695137	     -7.49999987	     22.78691116	    -13.46924717	    -14.25238757	     30.80068185	      0.53757331	     21.13290973	      2.86567435	     -7.49999987	     -8.98898053	      0.94942493	      4.62922813	     63.77353502	      5.00020654	     63.10366580	    128.76312832	     96.20489458	     70.34776900	      2.85063594	     63.33153287	    124.16475874	    101.92610073
      6.86666670	     -7.52101353	     -0.62967834	      2.48980787	      1.33896288	      0.90009351	     -0.10468383	     28.91858421	    -10.90327594	     -6.05074029	     31.43862657	      0.54870755	     12.66622335	     -0.73002721	     -7.49999987	     20.72232811	    -13.24106822	    -14.46294767	     28.49668824	      0.49736104	     21.14142088	      3.58534226	     -7.49999987	     -7.49682177	      1.38169231	      4.16506704	     61.86340688	      4.49330527	     62.15942319	    127.93252219	     96.17597604	     69.04709667	      2.78888975	     63.52909093	    124.19703864	    101.99575927
      6.88333330	     -6.04315205	     -0.85827374	      2.43410588	      1.34834171	      0.90293203	     -0.10581608	     25.58900548	    -10.47200803	     -6.56091962	     29.22847172	      0.51013307	     12.28312377	     -0.68968994	     -7.49999987	     17.39146081	    -13.14501519	    -14.91733513	     26.14884244	      0.45638340	     21.47101491	      4.69935206	     -7.49999987	     -7.15944963	      2.03788611	      3.58600663	     60.18572373	      4.57963491	     59.20205361	    126.29740511	     96.04022987	     68.30956998	      2.86533246	     62.77934238	    124.61406002	    102.00257797
      6.90000000	     -5.26093041	     -1.03723235	      2.45338870	      1.34788665	      0.90665114	     -0.10583042	     23.34457397	    -10.10827963	     -6.80254408	     27.43395129	      0.47881278	     11.86940312	     -0.86117960	     -7.49999987	     15.21550706	    -12.98901752	    -15.04994075	     24.31793679	      0.42442806	     21.71395476	      5.37852248	     -7.49999987	     -6.35797695	      2.45228633	      2.73497062	     58.94589016	      4.88842090	     58.14098237	    125.13448025	     95.92445966	     67.54459779	      2.79920592	     61.65898404	    124.45643345	    101.86335994
